# Blender 5.0.1
# www.blender.org
mtllib Vector.mtl
o Cone.001
v -0.000000 0.100000 -0.525400
v -0.100000 -0.000000 -0.525400
v -0.000000 -0.100000 -0.525400
v 0.100000 -0.000000 -0.525400
v -0.000000 -0.000000 -0.725400
v 0.037790 -0.037790 -0.054618
v 0.037789 -0.037790 -0.548047
v 0.037790 0.037790 -0.054618
v 0.037789 0.037789 -0.548047
v -0.037790 -0.037790 -0.054618
v -0.037790 -0.037790 -0.548047
v -0.037790 0.037790 -0.054618
v -0.037790 0.037789 -0.548047
v 0.000000 0.525400 -0.100000
v 0.100000 0.525400 -0.000000
v 0.000000 0.525400 0.100000
v -0.100000 0.525400 -0.000000
v 0.000000 0.725400 -0.000000
v -0.037790 0.054618 0.037790
v -0.037790 0.548047 0.037789
v -0.037790 0.054618 -0.037790
v -0.037790 0.548047 -0.037790
v 0.037790 0.054618 0.037790
v 0.037790 0.548047 0.037789
v 0.037790 0.054618 -0.037790
v 0.037790 0.548047 -0.037790
v 0.525400 0.100000 -0.000000
v 0.525400 -0.000000 -0.100000
v 0.525400 -0.100000 -0.000000
v 0.525400 -0.000000 0.100000
v 0.725400 -0.000000 -0.000000
v 0.054618 -0.037790 0.037790
v 0.548047 -0.037790 0.037789
v 0.054618 0.037790 0.037790
v 0.548047 0.037789 0.037789
v 0.054618 -0.037790 -0.037790
v 0.548047 -0.037790 -0.037790
v 0.054618 0.037790 -0.037790
v 0.548047 0.037789 -0.037790
vn -0.6667 0.6667 -0.3333
vn -0.6667 -0.6667 -0.3333
vn -0.0000 -0.0000 1.0000
vn 0.6667 -0.6667 -0.3333
vn 0.6667 0.6667 -0.3333
vn 1.0000 -0.0000 -0.0000
vn -0.0000 1.0000 -0.0000
vn -1.0000 -0.0000 -0.0000
vn -0.0000 -1.0000 -0.0000
vn -0.0000 -0.0000 -1.0000
vn 0.6667 0.3333 -0.6667
vn 0.6667 0.3333 0.6667
vn -0.6667 0.3333 0.6667
vn -0.6667 0.3333 -0.6667
vn 0.3333 0.6667 -0.6667
vn 0.3333 -0.6667 -0.6667
vn 0.3333 -0.6667 0.6667
vn 0.3333 0.6667 0.6667
vt 0.250000 0.490000
vt 0.250000 0.250000
vt 0.490000 0.250000
vt 0.250000 0.010000
vt 0.750000 0.490000
vt 0.990000 0.250000
vt 0.750000 0.010000
vt 0.510000 0.250000
vt 0.010000 0.250000
vt 0.375000 0.000000
vt 0.625000 0.000000
vt 0.625000 0.250000
vt 0.375000 0.250000
vt 0.625000 0.500000
vt 0.375000 0.500000
vt 0.625000 0.750000
vt 0.375000 0.750000
vt 0.625000 1.000000
vt 0.375000 1.000000
vt 0.125000 0.500000
vt 0.125000 0.750000
vt 0.875000 0.500000
vt 0.875000 0.750000
s 1
usemtl Material.001
f 1/1/1 5/2/1 2/3/1
f 2/3/2 5/2/2 3/4/2
f 1/5/3 2/6/3 3/7/3 4/8/3
f 3/4/4 5/2/4 4/9/4
f 4/9/5 5/2/5 1/1/5
f 6/10/6 7/11/6 9/12/6 8/13/6
f 8/13/7 9/12/7 13/14/7 12/15/7
f 12/15/8 13/14/8 11/16/8 10/17/8
f 10/17/9 11/16/9 7/18/9 6/19/9
f 8/20/3 12/15/3 10/17/3 6/21/3
f 13/14/10 9/22/10 7/23/10 11/16/10
usemtl Material.002
f 14/1/11 18/2/11 15/3/11
f 15/3/12 18/2/12 16/4/12
f 14/5/9 15/6/9 16/7/9 17/8/9
f 16/4/13 18/2/13 17/9/13
f 17/9/14 18/2/14 14/1/14
f 19/10/8 20/11/8 22/12/8 21/13/8
f 21/13/10 22/12/10 26/14/10 25/15/10
f 25/15/6 26/14/6 24/16/6 23/17/6
f 23/17/3 24/16/3 20/18/3 19/19/3
f 21/20/9 25/15/9 23/17/9 19/21/9
f 26/14/7 22/22/7 20/23/7 24/16/7
usemtl Material.003
f 27/1/15 31/2/15 28/3/15
f 28/3/16 31/2/16 29/4/16
f 27/5/8 28/6/8 29/7/8 30/8/8
f 29/4/17 31/2/17 30/9/17
f 30/9/18 31/2/18 27/1/18
f 32/10/3 33/11/3 35/12/3 34/13/3
f 34/13/7 35/12/7 39/14/7 38/15/7
f 38/15/10 39/14/10 37/16/10 36/17/10
f 36/17/9 37/16/9 33/18/9 32/19/9
f 34/20/8 38/15/8 36/17/8 32/21/8
f 39/14/6 35/22/6 33/23/6 37/16/6
