# Blender 5.0.1
# www.blender.org
mtllib Vector.mtl
o Cone.003
v 0.525400 0.054374 -0.000000
v 0.525400 -0.000000 -0.056916
v 0.525400 -0.054374 -0.000000
v 0.525400 -0.000000 0.056916
v 0.725400 -0.000000 -0.000000
v 0.054618 -0.020548 0.021508
v 0.548047 -0.020548 0.021508
v 0.054618 0.020548 0.021508
v 0.548047 0.020548 0.021508
v 0.054618 -0.020548 -0.021508
v 0.548047 -0.020548 -0.021509
v 0.054618 0.020548 -0.021508
v 0.548047 0.020548 -0.021509
v 0.000000 0.525400 -0.054374
v 0.056916 0.525400 -0.000000
v 0.000000 0.525400 0.054374
v -0.056916 0.525400 -0.000000
v -0.000000 0.725400 -0.000000
v -0.021508 0.054618 0.020548
v -0.021508 0.548047 0.020547
v -0.021508 0.054618 -0.020548
v -0.021508 0.548047 -0.020548
v 0.021508 0.054618 0.020548
v 0.021508 0.548047 0.020547
v 0.021508 0.054618 -0.020548
v 0.021508 0.548047 -0.020548
v -0.000000 0.054374 -0.525400
v -0.056916 -0.000000 -0.525400
v -0.000000 -0.054374 -0.525400
v 0.056916 -0.000000 -0.525400
v -0.000000 -0.000000 -0.725400
v 0.021508 -0.020548 -0.054618
v 0.021508 -0.020548 -0.548047
v 0.021508 0.020548 -0.054618
v 0.021508 0.020547 -0.548047
v -0.021508 -0.020548 -0.054618
v -0.021508 -0.020548 -0.548047
v -0.021508 0.020548 -0.054618
v -0.021508 0.020547 -0.548047
vn 0.1929 0.7095 -0.6778
vn 0.1929 -0.7095 -0.6778
vn -1.0000 -0.0000 -0.0000
vn 0.1929 -0.7095 0.6778
vn 0.1929 0.7095 0.6778
vn -0.0000 -0.0000 1.0000
vn -0.0000 1.0000 -0.0000
vn -0.0000 -0.0000 -1.0000
vn -0.0000 -1.0000 -0.0000
vn 1.0000 -0.0000 -0.0000
vn 0.6778 0.1929 -0.7095
vn 0.6778 0.1929 0.7095
vn -0.6778 0.1929 0.7095
vn -0.6778 0.1929 -0.7095
vn -0.6778 0.7095 -0.1929
vn -0.6778 -0.7095 -0.1929
vn 0.6778 -0.7095 -0.1929
vn 0.6778 0.7095 -0.1929
vt 0.250000 0.490000
vt 0.250000 0.250000
vt 0.490000 0.250000
vt 0.250000 0.010000
vt 0.750000 0.490000
vt 0.990000 0.250000
vt 0.750000 0.010000
vt 0.510000 0.250000
vt 0.010000 0.250000
vt 0.375000 0.000000
vt 0.625000 0.000000
vt 0.625000 0.250000
vt 0.375000 0.250000
vt 0.625000 0.500000
vt 0.375000 0.500000
vt 0.625000 0.750000
vt 0.375000 0.750000
vt 0.625000 1.000000
vt 0.375000 1.000000
vt 0.125000 0.500000
vt 0.125000 0.750000
vt 0.875000 0.500000
vt 0.875000 0.750000
s 1
usemtl Material.006
f 1/1/1 5/2/1 2/3/1
f 2/3/2 5/2/2 3/4/2
f 1/5/3 2/6/3 3/7/3 4/8/3
f 3/4/4 5/2/4 4/9/4
f 4/9/5 5/2/5 1/1/5
f 6/10/6 7/11/6 9/12/6 8/13/6
f 8/13/7 9/12/7 13/14/7 12/15/7
f 12/15/8 13/14/8 11/16/8 10/17/8
f 10/17/9 11/16/9 7/18/9 6/19/9
f 8/20/3 12/15/3 10/17/3 6/21/3
f 13/14/10 9/22/10 7/23/10 11/16/10
usemtl Material.004
f 14/1/11 18/2/11 15/3/11
f 15/3/12 18/2/12 16/4/12
f 14/5/9 15/6/9 16/7/9 17/8/9
f 16/4/13 18/2/13 17/9/13
f 17/9/14 18/2/14 14/1/14
f 19/10/3 20/11/3 22/12/3 21/13/3
f 21/13/8 22/12/8 26/14/8 25/15/8
f 25/15/10 26/14/10 24/16/10 23/17/10
f 23/17/6 24/16/6 20/18/6 19/19/6
f 21/20/9 25/15/9 23/17/9 19/21/9
f 26/14/7 22/22/7 20/23/7 24/16/7
usemtl Material.005
f 27/1/15 31/2/15 28/3/15
f 28/3/16 31/2/16 29/4/16
f 27/5/6 28/6/6 29/7/6 30/8/6
f 29/4/17 31/2/17 30/9/17
f 30/9/18 31/2/18 27/1/18
f 32/10/10 33/11/10 35/12/10 34/13/10
f 34/13/7 35/12/7 39/14/7 38/15/7
f 38/15/3 39/14/3 37/16/3 36/17/3
f 36/17/9 37/16/9 33/18/9 32/19/9
f 34/20/6 38/15/6 36/17/6 32/21/6
f 39/14/8 35/22/8 33/23/8 37/16/8
